# xmcd
#
# Track frame offsets: 
#        150
#        21812
#        46205
#        68167
#        91652
#        111167
#        126957
#        140120
#        158165
#        178365
#        193237
#        210502
#        223195
#        239985
#        262320
#        278170
#
# Disc length: 3875 seconds
#
# Revision: 4
# Processed by: cddbd v1.5.2PL0 Copyright (c) Steve Scherf et al.
# Submitted via: ExactAudioCopy v0.99pb4
#
DISCID=040f2110
DTITLE=Dave Hole - Under The Spell
DYEAR=1999
DGENRE=Rock Blues
TTITLE0=Holding Pattern
TTITLE1=Demolition Man
TTITLE2=Run With Me
TTITLE3=Cold Women With Warm Hearts
TTITLE4=More Love, Less Attitude
TTITLE5=Blues Is The Truth
TTITLE6=Chicken Stuff
TTITLE7=Don't Say Goodbye
TTITLE8=Yes Or No
TTITLE9=I See My Baby
TTITLE10=Short Memory
TTITLE11=Lost At Sea
TTITLE12=Guitar Man
TTITLE13=Bird's Eye Blues
TTITLE14=To Old To Rock'n'Roll
TTITLE15=I've Got To Go
EXTD=
EXTT0=
EXTT1=
EXTT2=
EXTT3=
EXTT4=
EXTT5=
EXTT6=
EXTT7=
EXTT8=
EXTT9=
EXTT10=
EXTT11=
EXTT12=
EXTT13=
EXTT14=
EXTT15=
PLAYORDER=
